<svg width="500" height="500" viewBox="0 0 500 500" fill="none" xmlns="http://www.w3.org/2000/svg">
<path d="M500 250C500 388.071 388.071 500 250 500C111.929 500 0 388.071 0 250C0 111.929 111.929 0 250 0C388.071 0 500 111.929 500 250Z" fill="black"/>
<path d="M500 250C500 388.071 388.071 500 250 500C111.929 500 0 388.071 0 250C0 111.929 111.929 0 250 0C388.071 0 500 111.929 500 250Z" fill="black"/>
<path d="M108 250C102.477 250 97.9647 254.483 98.3385 259.993C100.79 296.126 116.471 330.3 142.666 356.066C171.266 384.196 210.054 400 250.5 400C290.945 400 329.734 384.197 358.334 356.066C384.529 330.3 400.21 296.126 402.661 259.993C403.035 254.483 398.523 250 393 250H382.5C376.977 250 372.544 254.486 372.077 259.989C369.686 288.157 357.241 314.715 336.767 334.853C313.888 357.357 282.856 370 250.5 370C218.144 370 187.112 357.357 164.233 334.853C143.759 314.715 131.314 288.156 128.923 259.989C128.456 254.486 124.023 250 118.5 250H108Z" fill="white"/>
<path d="M167.75 157.875H187.312V214.5C187.312 220.833 188.062 225.458 189.562 228.375C191.896 233.542 196.979 236.125 204.812 236.125C212.604 236.125 217.667 233.542 220 228.375C221.5 225.458 222.25 220.833 222.25 214.5V157.875H241.812V214.5C241.812 224.292 240.292 231.917 237.25 237.375C231.583 247.375 220.771 252.375 204.812 252.375C188.854 252.375 178.021 247.375 172.312 237.375C169.271 231.917 167.75 224.292 167.75 214.5V157.875Z" fill="white"/>
<path d="M279.5 173.875V198.625H301.312C305.646 198.625 308.896 198.125 311.062 197.125C314.896 195.375 316.812 191.917 316.812 186.75C316.812 181.167 314.958 177.417 311.25 175.5C309.167 174.417 306.042 173.875 301.875 173.875H279.5ZM305.875 157.875C312.333 158 317.292 158.792 320.75 160.25C324.25 161.708 327.208 163.854 329.625 166.688C331.625 169.021 333.208 171.604 334.375 174.438C335.542 177.271 336.125 180.5 336.125 184.125C336.125 188.5 335.021 192.812 332.812 197.062C330.604 201.271 326.958 204.25 321.875 206C326.125 207.708 329.125 210.146 330.875 213.312C332.667 216.438 333.562 221.229 333.562 227.688V233.875C333.562 238.083 333.729 240.938 334.062 242.438C334.562 244.812 335.729 246.562 337.562 247.688V250H316.375C315.792 247.958 315.375 246.312 315.125 245.062C314.625 242.479 314.354 239.833 314.312 237.125L314.188 228.562C314.104 222.688 313.021 218.771 310.938 216.812C308.896 214.854 305.042 213.875 299.375 213.875H279.5V250H260.688V157.875H305.875Z" fill="white"/>
</svg>
